<svg width="10" height="11" viewBox="0 0 10 11" fill="none" xmlns="http://www.w3.org/2000/svg">
<path d="M9.69 8.69C9.24333 7.44333 8.46333 6.50667 7.35 5.88C7.31667 5.86 7.28667 5.85 7.26 5.85C7.24 5.85 7.21667 5.86333 7.19 5.89C6.57 6.41 5.86667 6.68 5.08 6.7C4.22667 6.72 3.47333 6.45333 2.82 5.9C2.78667 5.87333 2.75667 5.86 2.73 5.86C2.71 5.86 2.68333 5.86667 2.65 5.88C2.18333 6.14667 1.77667 6.46667 1.43 6.84C0.676667 7.65333 0.22 8.60333 0.06 9.69L0 10.13V10.46H9.88C9.92667 10.46 9.95667 10.4533 9.97 10.44C9.99 10.4267 10 10.3967 10 10.35C9.98 9.74333 9.87667 9.19 9.69 8.69ZM4.95 6.09C5.47 6.09 5.94667 5.96667 6.38 5.72C6.81333 5.47333 7.15333 5.13667 7.4 4.71C7.65333 4.27667 7.77667 3.80333 7.77 3.29C7.77 2.77667 7.64 2.30333 7.38 1.87C7.12667 1.45667 6.78667 1.13333 6.36 0.899999C5.94 0.66 5.48667 0.54 5 0.54C4.48667 0.54 4.01667 0.666666 3.59 0.92C3.17 1.16667 2.83667 1.50667 2.59 1.94C2.35 2.36667 2.23 2.83667 2.23 3.35C2.23 3.83667 2.35 4.29 2.59 4.71C2.83667 5.12333 3.16667 5.45333 3.58 5.7C4 5.95333 4.45667 6.08333 4.95 6.09Z" fill="#509E2F"/>
</svg>
