<svg width="9" height="10" viewBox="0 0 9 10" fill="none" xmlns="http://www.w3.org/2000/svg">
<path d="M4.42759 0.37C3.64759 0.37 2.92092 0.566666 2.24759 0.96C1.59426 1.34 1.07092 1.85333 0.677589 2.5C0.277589 3.16 0.0709228 3.87667 0.0575894 4.65C0.0442561 5.45 0.230923 6.19667 0.617589 6.89C0.990923 7.56333 1.50426 8.1 2.15759 8.5C2.83092 8.90667 3.56426 9.11667 4.35759 9.13C5.17092 9.13667 5.92426 8.94 6.61759 8.54C7.27092 8.16 7.79426 7.64 8.18759 6.98C8.58092 6.32 8.78426 5.60667 8.79759 4.84C8.81092 4.03333 8.62092 3.28333 8.22759 2.59C7.84092 1.91667 7.31426 1.38 6.64759 0.979999C5.96759 0.573333 5.22759 0.37 4.42759 0.37ZM4.45759 8.25C3.81759 8.25 3.22092 8.09333 2.66759 7.78C2.14092 7.47333 1.72092 7.05333 1.40759 6.52C1.08759 5.98 0.927589 5.39333 0.927589 4.76C0.927589 4.12 1.08759 3.52667 1.40759 2.98C1.71426 2.45333 2.13092 2.03667 2.65759 1.73C3.20426 1.41 3.79426 1.25 4.42759 1.25C5.06092 1.25 5.64759 1.41 6.18759 1.73C6.71426 2.03667 7.13426 2.45333 7.44759 2.98C7.76759 3.52667 7.92759 4.11667 7.92759 4.75C7.92759 5.36333 7.77426 5.93667 7.46759 6.47C7.16759 7.00333 6.75759 7.43 6.23759 7.75C5.69092 8.07667 5.09759 8.24333 4.45759 8.25ZM4.72759 2.13H4.13759C4.11759 2.13 4.10092 2.13667 4.08759 2.15C4.07426 2.16333 4.06759 2.18 4.06759 2.2V4.3C4.06759 4.32 4.05759 4.33667 4.03759 4.35C4.02426 4.36333 4.00759 4.37 3.98759 4.37H2.64759C2.62759 4.37 2.61092 4.37667 2.59759 4.39C2.58426 4.40333 2.57759 4.42 2.57759 4.44V5.04C2.57759 5.06 2.58426 5.07667 2.59759 5.09C2.61092 5.10333 2.62759 5.11 2.64759 5.11H4.72759C4.74759 5.11 4.76426 5.10333 4.77759 5.09C4.79092 5.07667 4.79759 5.06 4.79759 5.04V2.2C4.79759 2.18 4.79092 2.16333 4.77759 2.15C4.76426 2.13667 4.74759 2.13 4.72759 2.13Z" fill="black"/>
</svg>
