<svg width="11" height="11" viewBox="0 0 11 11" fill="none" xmlns="http://www.w3.org/2000/svg">
<path d="M5.54763 0.737116C5.58763 0.643783 5.63763 0.597116 5.69763 0.597116C5.75763 0.597116 5.80763 0.643783 5.84763 0.737116L7.03763 3.45712C7.07763 3.55045 7.14763 3.63712 7.24763 3.71712C7.34763 3.79045 7.45097 3.83045 7.55763 3.83712L10.5076 4.12712C10.6143 4.13378 10.6743 4.16712 10.6876 4.22712C10.7076 4.28045 10.681 4.34378 10.6076 4.41712L8.38763 6.37712C8.30763 6.44378 8.24763 6.54045 8.20763 6.66712C8.16763 6.78712 8.16097 6.89712 8.18763 6.99712L8.82763 9.89712C8.84763 9.99712 8.83097 10.0638 8.77763 10.0971C8.73097 10.1305 8.6643 10.1238 8.57763 10.0771L6.01763 8.56712C5.93097 8.51378 5.8243 8.48712 5.69763 8.48712C5.57097 8.48712 5.4643 8.51378 5.37763 8.56712L2.81763 10.0771C2.7243 10.1305 2.6543 10.1371 2.60763 10.0971C2.56097 10.0638 2.55097 9.99712 2.57763 9.89712L3.21763 6.99712C3.23763 6.89712 3.22763 6.78712 3.18763 6.66712C3.14763 6.54045 3.09097 6.44378 3.01763 6.37712L0.787632 4.41712C0.714299 4.34378 0.684299 4.28045 0.697632 4.22712C0.717632 4.16712 0.780965 4.13378 0.887632 4.12712L3.83763 3.83712C3.9443 3.83045 4.04763 3.79045 4.14763 3.71712C4.24763 3.63712 4.32097 3.55045 4.36763 3.45712L5.54763 0.737116Z" fill="black"/>
</svg>
