<svg width="9" height="9" viewBox="0 0 9 9" fill="none" xmlns="http://www.w3.org/2000/svg">
<path d="M6.39117 4.67C6.44451 4.62333 6.47117 4.56667 6.47117 4.5C6.47117 4.42667 6.44451 4.36667 6.39117 4.32L3.54117 1.38C3.49451 1.33333 3.43784 1.31 3.37117 1.31C3.30451 1.31 3.24784 1.33333 3.20117 1.38L2.63117 1.97C2.58451 2.01667 2.56117 2.07333 2.56117 2.14C2.56117 2.20667 2.58451 2.26667 2.63117 2.32L3.98117 3.71H0.341172C0.274505 3.71 0.217839 3.73333 0.171172 3.78C0.124505 3.82667 0.101172 3.88333 0.101172 3.95V4.94C0.101172 5.00667 0.124505 5.06667 0.171172 5.12C0.217839 5.16667 0.274505 5.19 0.341172 5.19H4.08117L2.63117 6.68C2.58451 6.72667 2.56117 6.78667 2.56117 6.86C2.56117 6.92667 2.58451 6.98333 2.63117 7.03L3.20117 7.62C3.24784 7.66667 3.30451 7.69 3.37117 7.69C3.43784 7.69 3.49451 7.66667 3.54117 7.62L6.39117 4.67ZM5.02117 1.34H7.08117V7.66H5.02117V8.88H7.69117C7.85784 8.88 8.00117 8.82 8.12117 8.7C8.24117 8.58 8.30117 8.43667 8.30117 8.27V0.729999C8.30117 0.563333 8.24117 0.42 8.12117 0.3C8.00117 0.18 7.85784 0.12 7.69117 0.12H5.02117V1.34Z" fill="#509E2F"/>
</svg>
